<?xml version="1.0" encoding="UTF-8" standalone="no"?>
<!-- Created with Inkscape (http://www.inkscape.org/) -->

<svg
   version="1.1"
   id="svg1"
   width="423.70184"
   height="65.961632"
   viewBox="0 0 423.70184 65.961633"
   xmlns="http://www.w3.org/2000/svg"
   xmlns:svg="http://www.w3.org/2000/svg">
  <defs
     id="defs1" />
  <g
     id="g1"
     transform="translate(-100.16258,-163.9493)">
    <g
       id="g2">
      <path
         style="fill:#333333;fill-opacity:1"
         d="m 118.72783,228.6934 c -2.52695,-1.54089 -3.16244,-2.46991 -11.08712,-16.20846 -7.27262,-12.60808 -8.16438,-14.8711 -7.11411,-18.05346 0.82679,-2.50519 3.63872,-5.37752 4.40968,-4.50439 0.29135,0.32996 5.37106,8.9575 11.28825,19.17231 5.9172,10.21481 11.19532,19.07671 11.72917,19.69313 0.91091,1.05177 0.71821,1.1206 -3.13129,1.11835 -2.89749,-0.002 -4.68702,-0.35918 -6.09458,-1.21748 z m 18.10049,0.2649 c -1.18196,-1.18196 -1.37218,-3.89862 -0.44393,-6.34011 l 0.61388,-1.61461 11.42068,-0.18825 11.42068,-0.18825 -1.44122,2.57681 c -0.79267,1.41724 -2.33571,3.43458 -3.42898,4.48299 -1.94226,1.86255 -2.16053,1.91102 -9.53553,2.1177 -6.35273,0.17803 -7.71526,0.044 -8.60558,-0.84628 z m -6.49267,-1.71426 c -0.97078,-0.76361 -2.16241,-2.33941 -2.64808,-3.50178 -1.58459,-3.79247 -1.1077,-6.18034 2.69813,-13.50986 1.96965,-3.79327 3.81218,-7.18504 4.09453,-7.53727 0.28235,-0.35224 1.07988,-1.6491 1.77228,-2.88192 0.69241,-1.23283 2.84324,-4.97932 4.77963,-8.32555 1.93639,-3.34623 3.72554,-6.73249 3.9759,-7.52502 0.25036,-0.79253 0.73806,-1.44096 1.08378,-1.44096 1.16026,0 3.09935,5.40239 3.1136,8.67462 0.0129,2.97115 -0.64262,4.38753 -8.15138,17.61174 -7.0844,12.47684 -8.15731,14.7411 -8.10403,17.10256 0.0338,1.497 -0.14351,2.72182 -0.39396,2.72182 -0.25045,0 -1.24963,-0.62477 -2.2204,-1.38838 z m 71.39884,-30.31275 v -25.29687 h 4.80321 4.8032 v 25.29687 25.29686 h -4.8032 -4.80321 z m 25.97433,24.34126 c -5.07622,-1.80831 -8.00039,-5.14565 -9.73411,-11.10943 -2.31827,-7.97454 1.52568,-16.95915 8.59907,-20.09895 3.10163,-1.37678 9.39147,-1.62735 13.44575,-0.53565 5.9521,1.60274 9.80741,6.73768 10.72692,14.28736 l 0.4485,3.68245 h -12.2419 c -8.12043,0 -12.24191,0.22632 -12.24191,0.67223 0,1.78102 2.21205,4.57349 4.57968,5.78137 3.15134,1.60769 5.70761,1.31156 9.21304,-1.06729 l 2.39386,-1.62452 2.31365,2.12 c 1.27251,1.16599 2.58362,2.33312 2.91358,2.59361 0.88433,0.69815 -2.11442,3.67394 -5.08292,5.04399 -3.14364,1.45088 -11.58204,1.59113 -15.33321,0.25483 z m 12.97615,-20.95702 c -0.26145,-1.81284 -4.00001,-4.34489 -6.41521,-4.34489 -3.33349,0 -6.91819,2.63291 -6.91819,5.08132 0,0.44004 2.40493,0.68253 6.76903,0.68253 6.62325,0 6.76462,-0.0306 6.56437,-1.41896 z m 18.2501,20.66803 c -3.24871,-1.47497 -4.83336,-4.21644 -4.83336,-8.36181 0,-3.52088 1.28223,-6.26875 3.98724,-8.54487 2.53228,-2.13078 5.66861,-2.97481 11.07058,-2.97925 5.19317,-0.004 6.28123,-1.16027 3.41368,-3.62684 -2.04193,-1.75639 -4.74501,-1.9257 -7.77663,-0.4871 -2.05502,0.97517 -2.24522,0.94834 -5.08777,-0.71751 -1.62413,-0.95179 -2.84535,-2.05609 -2.71383,-2.454 0.50177,-1.51811 5.406,-4.18073 8.78221,-4.76807 4.0691,-0.70788 9.80203,-0.0718 12.65634,1.4042 1.08487,0.56101 2.64365,1.96099 3.46395,3.11107 1.4268,2.00041 1.50082,2.66709 1.70752,15.37991 l 0.21607,13.28886 h -4.85916 c -4.43379,0 -4.85917,-0.11224 -4.85917,-1.2821 v -1.2821 l -2.39212,1.2821 c -3.14769,1.68706 -9.10378,1.70455 -12.77555,0.0375 z m 13.68874,-7.19571 c 1.168,-1.09727 1.49359,-1.9921 1.34913,-3.70781 -0.18175,-2.15865 -0.31145,-2.27032 -2.85174,-2.45547 -3.00368,-0.21893 -7.09102,1.23615 -7.66358,2.7282 -0.63269,1.64878 0.34859,4.20844 1.85841,4.84764 2.11251,0.89434 5.56193,0.22759 7.30778,-1.41256 z m 17.4896,-8.2108 v -16.6511 h 4.72851 c 4.25278,0 4.76361,0.13422 5.07738,1.33406 l 0.34886,1.33407 1.91895,-1.41874 c 1.4679,-1.08526 2.77108,-1.41108 5.54431,-1.38616 1.99395,0.0179 3.75085,0.15806 3.90422,0.31143 0.15337,0.15337 -0.0328,1.7321 -0.41373,3.50829 l -0.69259,3.22943 -2.43366,-0.32642 c -3.66178,-0.49115 -6.90622,1.27754 -7.72039,4.20873 -0.35657,1.28373 -0.64992,6.87309 -0.65188,12.42079 l -0.004,10.08672 h -4.8032 -4.80321 z m 23.05537,0 v -16.6511 h 4.80321 c 4.37625,0 4.8032,0.11385 4.8032,1.28085 0,1.55598 0.80932,1.61934 2.93057,0.22945 4.16514,-2.72911 13.03924,-1.96685 15.90308,1.36602 2.39307,2.78498 2.94087,6.29833 2.94087,18.86158 v 11.5643 h -4.48299 -4.48299 l -0.0279,-9.4463 c -0.0328,-11.11838 -0.5963,-14.73065 -2.5438,-16.30764 -2.73576,-2.21528 -8.39814,-0.77336 -9.62394,2.45072 -0.3371,0.88665 -0.61291,6.49259 -0.61291,12.45765 v 10.84557 h -4.8032 -4.80321 z m 37.14477,0 v -16.6511 h 4.8032 4.8032 v 16.6511 16.6511 h -4.8032 -4.8032 z m 25.73103,15.56379 c -0.46893,-0.89115 -11.74886,-27.38471 -13.3871,-31.44273 -0.26034,-0.64489 0.76726,-0.78706 4.62899,-0.64042 l 4.96362,0.18847 3.30615,8.96598 c 1.81838,4.93129 3.57949,8.91877 3.91356,8.86107 0.33408,-0.0577 1.9999,-3.94829 3.70183,-8.64577 1.70193,-4.69747 3.31855,-8.77051 3.5925,-9.05121 0.27395,-0.28069 2.53142,-0.42479 5.0166,-0.32021 l 4.51851,0.19014 -6.86397,16.33089 -6.86397,16.33089 -2.95969,0.19354 c -2.32712,0.15218 -3.0895,-0.0531 -3.56703,-0.96064 z m 33.02684,0.17358 c -6.2419,-2.22752 -10.33374,-8.32085 -10.30364,-15.34361 0.0236,-5.50938 1.10391,-8.73047 4.0509,-12.07843 3.2732,-3.71856 6.57843,-5.03759 12.62319,-5.03759 10.09101,0 16.73097,6.15959 16.81822,15.60151 l 0.0281,3.04203 h -11.8479 c -13.03648,0 -13.05197,0.006 -10.77736,3.85615 2.35989,3.99497 8.50888,4.74521 12.35654,1.50762 0.99432,-0.83667 2.068,-1.52121 2.38597,-1.52121 0.83494,0 5.32104,4.71972 5.32104,5.59815 0,1.01718 -3.69424,3.67449 -6.33973,4.56024 -2.93528,0.98277 -11.34784,0.87413 -14.31534,-0.18486 z m 12.96995,-20.74915 c 0,-1.61992 -2.54655,-3.8551 -4.93677,-4.33315 -2.89221,-0.57844 -6.44097,0.79301 -7.53715,2.91281 -0.50818,0.9827 -0.74333,1.96737 -0.52255,2.18815 0.22077,0.22077 3.23529,0.40141 6.69894,0.40141 5.67015,0 6.29753,-0.11648 6.29753,-1.16922 z m 15.31688,21.39696 c -0.14677,-0.14626 -0.18531,-7.63925 -0.0857,-16.6511 l 0.1812,-16.38518 h 4.4619 c 4.03495,0 4.4619,0.12256 4.4619,1.28085 0,1.61343 0.3107,1.60286 2.6902,-0.0915 1.4,-0.99689 2.87671,-1.37234 5.39763,-1.37234 1.9087,0 3.64137,0.17101 3.85039,0.38003 0.20902,0.20902 0.12508,1.7632 -0.18653,3.45373 l -0.56656,3.0737 -2.64783,-0.20903 c -3.06787,-0.24219 -6.21295,1.15057 -7.3564,3.25769 -0.48861,0.9004 -0.8833,5.54669 -1.06029,12.48169 l -0.28194,11.04737 h -4.29559 c -2.36257,0 -4.41566,-0.11966 -4.56242,-0.26592 z m 28.43389,-0.97905 c -1.47411,-0.66926 -3.56803,-1.87325 -4.65317,-2.67553 l -1.97298,-1.45868 2.96089,-3.00609 2.96088,-3.00609 2.7458,1.85312 c 3.00168,2.02581 6.34067,2.42183 8.30554,0.98509 1.45547,-1.06427 0.94554,-2.75056 -1.08443,-3.58616 -0.80241,-0.3303 -3.04399,-1.04222 -4.98128,-1.58204 -7.09252,-1.97632 -10.62132,-5.62496 -9.92791,-10.26509 0.55489,-3.71326 2.5477,-6.47737 5.80764,-8.05548 3.27661,-1.58618 8.25454,-1.79021 11.80539,-0.48386 2.8754,1.05786 7.02651,3.82889 7.03677,4.69734 0.004,0.36881 -1.15236,1.80355 -2.57049,3.18832 -2.21058,2.15858 -2.73592,2.40357 -3.68245,1.71735 -2.44979,-1.77604 -6.0403,-3.13168 -7.53681,-2.8456 -1.81436,0.34683 -2.77625,2.86372 -1.62471,4.25123 0.63653,0.76697 4.28123,2.01871 7.93147,2.724 1.98837,0.38418 4.82322,2.08363 6.50979,3.90252 2.16348,2.33321 2.2418,6.72318 0.17543,9.8326 -3.15973,4.75467 -12.03638,6.61385 -18.20537,3.81305 z m 34.62957,0.39571 c -5.54419,-2.09116 -9.02685,-6.15414 -10.21429,-11.91631 -2.31439,-11.23078 4.72524,-20.56918 15.54483,-20.62093 10.02421,-0.0479 15.98434,4.61304 17.45021,13.64654 0.36142,2.22723 0.6593,4.26564 0.66196,4.52982 0.003,0.26418 -5.47081,0.48032 -12.16328,0.48032 -8.06891,0 -12.16811,0.22646 -12.16811,0.67223 0,1.78102 2.21204,4.57349 4.57968,5.78137 3.12033,1.59187 5.70611,1.31257 9.08655,-0.98146 l 2.26738,-1.53868 2.99922,2.64002 2.99921,2.64001 -2.25978,2.07094 c -1.24288,1.13901 -3.36772,2.37858 -4.72186,2.75459 -3.21369,0.89236 -11.52402,0.79871 -14.06172,-0.15846 z m 12.74822,-20.04581 c 0.79014,-0.79014 -1.44516,-3.9164 -3.37044,-4.71388 -3.77255,-1.56264 -9.62603,0.83692 -9.62603,3.94607 0,1.05274 0.62738,1.16922 6.29753,1.16922 3.46364,0 6.47817,-0.18064 6.69894,-0.40141 z m -374.19728,16.65014 c 0,-0.37453 3.73067,-7.21948 4.31545,-7.91788 0.40017,-0.47792 23.22523,-1.02633 23.22399,-0.558 -5.9e-4,0.22437 -0.9377,1.78517 -2.08247,3.46846 -3.30902,4.86566 -4.91841,5.40979 -16.00068,5.40979 -5.20096,0 -9.45629,-0.18107 -9.45629,-0.40237 z m -16.61467,-2.72836 c -0.7634,-1.49639 -1.55333,-4.11664 -1.7554,-5.82277 -0.33501,-2.82868 -0.0964,-3.60087 2.70798,-8.76207 4.06372,-7.47899 5.26357,-9.62519 6.31999,-11.30461 0.48439,-0.77006 1.56911,-2.69697 2.41049,-4.28202 2.4546,-4.62415 7.6615,-13.44897 7.93529,-13.44897 0.97284,0 2.83888,5.56243 2.83888,8.46236 0,3.14682 -0.53455,4.33145 -7.45286,16.5165 -4.09907,7.2196 -8.38964,14.97959 -9.53461,17.24442 l -2.08176,4.11787 z m 31.46297,-13.55371 c -2.58162,-4.80066 -2.71441,-5.28738 -2.01807,-7.3973 0.40996,-1.24218 0.63722,-3.39267 0.50503,-4.77885 -0.23196,-2.43236 -0.1727,-2.52011 1.69785,-2.51402 1.77608,0.006 2.19207,0.47452 4.97318,5.60373 1.66923,3.07859 3.97477,7.26385 5.12341,9.30058 2.50433,4.44059 2.14455,4.92258 -3.6754,4.92382 l -3.84256,8.1e-4 z m -41.37048,-4.1755 c -2.67231,-4.75303 -4.85874,-9.06467 -4.85874,-9.58143 0,-0.73482 0.96094,-0.93955 4.41,-0.93955 h 4.41 l 2.59814,4.37331 c 1.42897,2.40531 2.67907,4.6388 2.778,4.9633 0.0989,0.3245 -0.8683,2.66816 -2.1494,5.20813 l -2.32926,4.61812 z m 51.17862,-1.29063 c -2.46564,-4.42213 -4.57905,-8.30801 -4.69647,-8.63529 -0.37354,-1.04124 5.88995,-0.63763 8.17329,0.52668 3.16942,1.61613 4.69531,4.04543 5.01099,7.97778 0.22335,2.7823 0.004,3.78113 -1.22596,5.58093 -0.82391,1.20566 -1.7862,2.28167 -2.13844,2.39112 -0.35223,0.10945 -2.65777,-3.4191 -5.12341,-7.84122 z m -57.46941,-12.11227 c 1.90154,-3.29879 4.37979,-6.25079 5.91343,-7.04387 1.41968,-0.73414 4.21513,-0.96147 11.82318,-0.96147 h 9.9639 l -2.03078,3.68245 c -1.11693,2.02535 -2.20012,3.88114 -2.40708,4.12397 -0.6239,0.73202 -23.68361,0.9292 -23.26265,0.19892 z m 59.45783,0.49408 c -0.25661,-0.2566 -3.73021,-0.38712 -7.71911,-0.29004 l -7.25256,0.1765 -2.64304,-4.58429 -2.64304,-4.5843 6.89317,0.2372 c 8.30111,0.28565 10.22756,1.19511 13.02552,6.14925 1.64394,2.9108 1.81499,4.37161 0.33906,2.89568 z m 185.75594,-2.6259 c -2.82192,-3.11818 0.20954,-8.30474 4.34171,-7.42826 3.96369,0.84074 5.39795,4.04926 3.20784,7.17608 -1.30263,1.85976 -5.9541,2.01513 -7.54955,0.25218 z M 114.14517,170.99399 c 3.47639,-5.82002 5.94429,-7.04469 14.19615,-7.04469 7.15104,0 8.71005,0.787 8.71005,4.3969 0,4.39602 -0.2547,4.48865 -12.92307,4.70021 l -11.322,0.18908 z m 36.99559,2.08085 -7.36491,-0.20544 -2.13559,-3.87215 c -1.17458,-2.12969 -2.01261,-3.99514 -1.8623,-4.14546 0.15031,-0.15031 2.84048,-0.33077 5.97816,-0.40101 7.14364,-0.15992 9.9689,1.02793 12.51624,5.26236 1.98549,3.30046 2.15201,3.8972 1.03385,3.70485 -0.4403,-0.0757 -4.11475,-0.23016 -8.16545,-0.34315 z"
         id="path2" />
    </g>
  </g>
</svg>
